<svg version="1.2" xmlns="http://www.w3.org/2000/svg" viewBox="0 0 67 67" width="67" height="67">
	<title>code-svg</title>
	<style>
		.s0 { opacity: .5;fill: #f6aa78 } 
		.s1 { fill: #678ee6 } 
		.s2 { opacity: .5;fill: #678ee6 } 
		.s3 { opacity: .7;fill: #f57389 } 
		.s4 { opacity: .5;fill: #3d8fcc } 
		.s5 { fill: #f6aa78 } 
		.s6 { fill: #f57389 } 
		.s7 { fill: #3d8fcc } 
	</style>
	<g id="Layer">
		<path id="Layer" class="s0" d="m58.7 40l2.3-2.3 2.4 2.3-2.4 2.4z"/>
		<path id="Layer" class="s1" d="m39.1 9.9l2.2-2.1 2.1 2.1-2.1 2.2z"/>
		<path id="Layer" fill-rule="evenodd" class="s2" d="m4.7 38.8l2.2 2.2-2.2 2.2-1.9-1.9-0.3-0.3zm0 3.2l0.9-1-0.9-0.9-1 0.9z"/>
		<path id="Layer" class="s3" d="m46.1 58.1l2.4-2.5 2.4 2.5-2.4 2.4z"/>
		<path id="Layer" class="s4" d="m26.3 56.9l1.6-1.6 1.6 1.6-1.6 1.6z"/>
		<path id="Layer" class="s5" d="m35.2 4.8l1.3-1.3 1.3 1.3-1.3 1.3z"/>
		<path id="Layer" fill-rule="evenodd" class="s6" d="m14.2 57.4h3v-2.2h0.4l1.1 1.1v3.4c0 0.4-0.3 0.8-0.7 0.8h-3.8c-0.4 0-0.8-0.4-0.8-0.8v-3.8c0-0.4 0.4-0.7 0.8-0.7zm1.5-2.3v1.9h-1.1v-1.9zm-0.4 3.8c0 0.4 0.3 0.7 0.8 0.7 0.4 0 0.7-0.3 0.7-0.7 0-0.4-0.3-0.8-0.7-0.8-0.5 0-0.8 0.4-0.8 0.8z"/>
		<path id="Layer" class="s7" d="m23.2 5.8l-0.5 0.9 0.5 0.9v1.8h-0.9v1.6c0 0.6 0.5 1.1 1.1 1.1 0.6 0 1.1-0.5 1.1-1.1v-1.6h-0.9v-1.8l0.5-0.9-0.5-0.9zm2.7 0.1q-0.2 0.1-0.3 0.2-0.2 0.1-0.3 0.3-0.1 0.2-0.2 0.4-0.1 0.2-0.1 0.4 0 0.2 0.1 0.4 0.1 0.2 0.2 0.4 0.1 0.1 0.3 0.3 0.1 0.1 0.3 0.2v3.2c0 0.2 0.2 0.4 0.5 0.4 0.2 0 0.4-0.2 0.4-0.4v-3.2q0.2-0.1 0.4-0.2 0.2-0.2 0.3-0.3 0.1-0.2 0.2-0.4 0-0.2 0-0.4 0-0.2 0-0.4-0.1-0.2-0.2-0.4-0.1-0.1-0.3-0.3-0.2-0.1-0.4-0.2v1.3q0 0.1 0 0.2 0 0.1-0.1 0.1-0.1 0.1-0.2 0.1 0 0-0.1 0-0.1 0-0.2 0-0.1 0-0.1-0.1-0.1 0-0.1-0.1-0.1-0.1-0.1-0.2z"/>
	</g>
</svg>