<svg version="1.2" xmlns="http://www.w3.org/2000/svg" viewBox="0 0 67 67" width="67" height="67">
	<title>code-svg</title>
	<defs>
		<linearGradient id="g1" x1="3.7" y1="59.7" x2="58.7" y2="15.9" gradientUnits="userSpaceOnUse">
			<stop offset="0" stop-color="#f6aa78"/>
			<stop offset="1" stop-color="#f57389"/>
		</linearGradient>
	</defs>
	<style>
		.s0 { fill: #ffffff } 
		.s1 { fill: url(#g1);stroke: #000000;stroke-width: 0 } 
		.s2 { fill: #3d8fcc } 
		.s3 { fill: #678ee6 } 
		.s4 { fill: #78e5f6 } 
		.s5 { fill: #f6aa78 } 
		.s6 { fill: #f57389 } 
	</style>
	<g id="Layer">
		<g id="Folder 1">
			<path id="Layer copy" fill-rule="evenodd" class="s0" d="m11.5 15.6c-1.1 0-1.9 0.8-1.9 1.9v33.4c0 1 0.8 1.9 1.9 1.9h43.2c1 0 1.9-0.9 1.9-1.9v-33.4c0-1.1-0.9-1.9-1.9-1.9z"/>
			<path id="Layer" fill-rule="evenodd" class="s1" d="m54.7 15.6c1 0 1.9 0.8 1.9 1.9v33.4c0 1-0.9 1.9-1.9 1.9h-43.2c-1.1 0-1.9-0.9-1.9-1.9v-33.4c0-1.1 0.8-1.9 1.9-1.9zm-44.1 1.9v2.5h45v-2.5c0-0.5-0.4-0.9-0.9-0.9h-43.2c-0.6 0-0.9 0.4-0.9 0.9zm43.5 0.3v1h-1.1v-1zm-43.5 33.1c0 0.5 0.4 0.9 0.9 0.9h7.8v-30.8h-8.7c0 0 0 29.9 0 29.9zm9.7 0.9h34.4c0.5 0 0.9-0.4 0.9-0.9v-29.9h-35.3c0 0 0 30.8 0 30.8z"/>
			<path id="Layer" class="s2" d="m11.8 22.4v1h6v-1z"/>
			<path id="Layer" class="s2" d="m14 24.5v1h3.8v-1z"/>
			<path id="Layer" class="s2" d="m14 26.6v1h3.8v-1z"/>
			<path id="Layer" class="s3" d="m21.7 22.4v1h9.9v-1zm11.2 0v1h6.1v-1z"/>
			<path id="Layer" class="s4" d="m23.7 24.5v1h12.8v-1zm2 10.6v1h7v-1zm-4 4.3v1h6.3v-1z"/>
			<path id="Layer" class="s3" d="m23.7 26.6v1h9v-1z"/>
			<path id="Layer" class="s5" d="m23.7 28.7v1h6.5v-1z"/>
			<path id="Layer" class="s6" d="m23.7 30.8v1h9v-1zm10.1 0v1h4v-1zm-10.1 2.2v1h7v-1z"/>
		</g>
	</g>
</svg>