<svg version="1.2" xmlns="http://www.w3.org/2000/svg" viewBox="0 0 67 67" width="67" height="67">
	<title>document_front-svg</title>
	<defs>
		<linearGradient id="g1" x1="-18.2" y1="83.7" x2="60.8" y2="11.2" gradientUnits="userSpaceOnUse">
			<stop offset="0" stop-color="#f6aa78"/>
			<stop offset="1" stop-color="#f57389"/>
		</linearGradient>
	</defs>
	<style>
		.s0 { opacity: .9;fill: #ffffff } 
		.s1 { opacity: .9;fill: url(#g1) } 
		.s2 { opacity: .9;fill: #678ee6 } 
		.s3 { fill: #678ee6 } 
	</style>
	<g id="Layer">
		<g id="Folder 1">
			<path id="Layer" fill-rule="evenodd" class="s0" d="m44.8 8.1c0.3 0 0.5 0.2 0.5 0.5v22.4c0 0.4-0.5 0.6-0.8 0.3l-4.9-3.9-4.8 3.9c-0.3 0.3-0.8 0.1-0.8-0.3v-22.4c0-0.3 0.2-0.5 0.5-0.5z"/>
			<path id="Layer" fill-rule="evenodd" class="s0" d="m17.6 9.4h16.9c0.3 0 0.5 0.3 0.5 0.5v20l4.3-3.6c0.2-0.1 0.5-0.1 0.7 0l4.3 3.6v-20c0-0.2 0.2-0.5 0.5-0.5h3.7c1.4 0 2.5 1.1 2.5 2.5v41.8c0 1.4-1.1 2.5-2.5 2.5h-32.8c-0.3 0-0.5-0.3-0.5-0.5v-45.7c0-0.3 0.2-0.6 0.5-0.5z"/>
			<path id="Layer copy" fill-rule="evenodd" class="s1" d="m17.6 9.4h16.9c0.3 0 0.5 0.3 0.5 0.5v20l4.3-3.6c0.2-0.1 0.5-0.1 0.7 0l4.3 3.6v-20c0-0.2 0.2-0.5 0.5-0.5h3.7c1.4 0 2.5 1.1 2.5 2.5v41.8c0 1.4-1.1 2.5-2.5 2.5h-32.8c-0.3 0-0.5-0.3-0.5-0.5v-45.7c0-0.3 0.2-0.6 0.5-0.5zm-1.4 45.7h32.3c0.8 0 1.4-0.7 1.4-1.5v-41.8c0-0.8-0.6-1.4-1.4-1.4h-3.2v20.5c0 0.4-0.5 0.6-0.8 0.4l-4.9-4-4.8 4c-0.3 0.2-0.8 0-0.8-0.4v-20.5h-17.8zm2.2-43v41.1c0.1 0.7-1 0.7-1 0v-41.1c0-0.2 0.3-0.5 0.5-0.5 0.3 0 0.5 0.3 0.5 0.5z"/>
			<path id="Layer copy 2" fill-rule="evenodd" class="s2" d="m44.8 8.1c0.3 0 0.5 0.2 0.5 0.5v22.4c0 0.4-0.5 0.6-0.8 0.3l-4.9-3.9-4.8 3.9c-0.3 0.3-0.8 0.1-0.8-0.3v-22.4c0-0.3 0.2-0.5 0.5-0.5zm-9.8 21.8l4.3-3.6c0.2-0.1 0.5-0.1 0.6 0l4.4 3.6v-20.8h-9.3z"/>
			<path id="Layer" fill-rule="evenodd" class="s3" d="m44.6 44q0.4 0.2 0.7 0.5 0.3 0.3 0.4 0.6 0.2 0.4 0.2 0.8 0 0.5-0.2 0.8-0.1 0.4-0.4 0.7-0.3 0.3-0.7 0.5-0.4 0.1-0.8 0.1-0.2 0-0.3 0-0.1 0-0.3 0-0.1-0.1-0.2-0.1-0.2-0.1-0.3-0.2l-1.2 1.2-0.7-0.7 1.2-1.2q-0.1-0.1-0.2-0.2 0-0.2 0-0.3-0.1-0.1-0.1-0.3 0-0.1 0-0.3 0-0.4 0.1-0.8 0.2-0.3 0.5-0.6 0.3-0.3 0.7-0.5 0.4-0.2 0.8-0.2 0.4 0 0.8 0.2zm-1.2 1q-0.2 0-0.4 0.2-0.1 0.1-0.2 0.3-0.1 0.2-0.1 0.4 0 0.2 0.1 0.4 0.1 0.2 0.2 0.4 0.2 0.1 0.4 0.2 0.2 0.1 0.4 0.1 0.2 0 0.4-0.1 0.2-0.1 0.3-0.2 0.2-0.2 0.2-0.4 0.1-0.2 0.1-0.4 0-0.2-0.1-0.4 0-0.2-0.2-0.3-0.1-0.2-0.3-0.2-0.2-0.1-0.4-0.1-0.2 0-0.4 0.1zm-3.3 4.1c0.8 0 1.4 0.5 1.5 1.2q0 0.2 0 0.4 0 0.2 0 0.4c-0.1 0.6-0.7 1.1-1.5 1.1h-1v-3.1zm1.6 1.2c0.1-0.7 0.7-1.2 1.5-1.2 0.9 0 1.6 0.7 1.6 1.6 0 0.8-0.7 1.5-1.6 1.5-0.8 0-1.4-0.5-1.5-1.1q0-0.2 0-0.4 0-0.2 0-0.4zm4.7-1.2h0.5v1h-0.5c-0.3 0-0.6 0.3-0.6 0.6 0 0.3 0.3 0.5 0.6 0.5h0.5v1h-0.5c-0.9 0-1.6-0.7-1.6-1.5 0-0.9 0.7-1.6 1.6-1.6zm-6.3 2.1c0.2 0 0.5-0.2 0.5-0.5 0-0.3-0.3-0.6-0.5-0.6zm2.6-0.5c0 0.3 0.2 0.5 0.5 0.5 0.3 0 0.5-0.2 0.5-0.5 0-0.3-0.2-0.5-0.5-0.5-0.3 0-0.5 0.2-0.5 0.5z"/>
		</g>
	</g>
</svg>