<svg version="1.2" xmlns="http://www.w3.org/2000/svg" viewBox="0 0 67 67" width="67" height="67">
	<title>document-svg</title>
	<style>
		.s0 { fill: #678ee6 } 
		.s1 { opacity: .5;fill: #3d8fcc } 
		.s2 { fill: #f57389 } 
		.s3 { fill: #3d8fcc } 
		.s4 { fill: #f6aa78 } 
		.s5 { fill: #78e5f6 } 
	</style>
	<g id="Layer">
		<g id="Folder 2">
			<path id="Layer" class="s0" d="m36.8 61.3l2.1-2.1 2.2 2.1-2.2 2.2z"/>
			<path id="Layer" fill-rule="evenodd" class="s1" d="m57.1 46.3l2.2 2.2-2.2 2.2-2.2-2.2zm0 3.2l0.9-1-0.9-0.9-1 0.9z"/>
			<path id="Layer" class="s2" d="m51 7l2.4-2.4 2.4 2.4-2.4 2.4z"/>
			<path id="Layer" fill-rule="evenodd" class="s3" d="m8.5 31.5l2.2 2.2-2.2 2.2-1.9-1.9-0.3-0.3zm0 3.1l1-0.9-1-0.9-0.9 0.9z"/>
			<path id="Layer" class="s4" d="m10.5 26.1c-0.9 0-1.6-0.7-1.6-1.6 0-0.8 0.7-1.5 1.6-1.5 0.8 0 1.5 0.7 1.5 1.5 0 0.9-0.7 1.6-1.5 1.6z"/>
			<path id="Layer" class="s5" d="m10.5 20.9c-0.9 0-1.6-0.7-1.6-1.6 0-0.8 0.7-1.5 1.6-1.5 0.8 0 1.5 0.7 1.5 1.5 0 0.9-0.7 1.6-1.5 1.6z"/>
			<path id="Layer" class="s2" d="m10.5 15.7c-0.9 0-1.6-0.7-1.6-1.5 0-0.9 0.7-1.6 1.6-1.6 0.8 0 1.5 0.7 1.5 1.6 0 0.8-0.7 1.5-1.5 1.5z"/>
			<path id="Layer" class="s0" d="m9.3 46.4q-0.1 0-0.2 0-0.1 0.1-0.2 0.2 0 0-0.1 0.1 0 0.1 0 0.2v2.6h-1.1c-0.6 0-1 0.5-1 1.1v0.5h5.2v-0.5c0-0.6-0.4-1.1-1-1.1h-1.1v-2.6q0-0.1 0-0.2-0.1-0.1-0.1-0.1-0.1-0.1-0.2-0.2-0.1 0-0.2 0zm-2.6 5.2v2.1l5.2-0.5v-1.6z"/>
			<path id="Layer" fill-rule="evenodd" class="s5" d="m60.7 31.3q0 0.2 0 0.2-0.1 0.1-0.2 0.2 0 0.1-0.1 0.1-0.1 0.1-0.2 0.1-0.1 0-0.2-0.1-0.1 0-0.2-0.1-0.1-0.1-0.1-0.2-0.1 0-0.1-0.2c0-2.3-1.8-4.2-4.2-4.2q-0.1 0-0.2 0-0.1 0-0.1-0.1-0.1-0.1-0.1-0.2-0.1-0.1-0.1-0.2 0-0.1 0.1-0.2 0-0.1 0.1-0.1 0-0.1 0.1-0.2 0.1 0 0.2 0c2.9 0 5.3 2.4 5.3 5.2zm-2.1 0q0 0.2 0 0.2-0.1 0.1-0.2 0.2 0 0.1-0.1 0.1-0.1 0.1-0.2 0.1-0.1 0-0.2-0.1-0.1 0-0.2-0.1-0.1-0.1-0.1-0.2-0.1 0-0.1-0.2c0-1.1-0.9-2.1-2.1-2.1q-0.1 0-0.2 0-0.1 0-0.1-0.1-0.1-0.1-0.1-0.2-0.1-0.1-0.1-0.2 0-0.1 0.1-0.2 0-0.1 0.1-0.1 0-0.1 0.1-0.2 0.1 0 0.2 0c1.8 0 3.2 1.4 3.2 3.1zm-2.8-0.9q0.2 0.1 0.4 0.2 0.1 0.2 0.2 0.3 0.1 0.2 0.1 0.4 0 0.3-0.1 0.5-0.1 0.1-0.2 0.3-0.2 0.1-0.4 0.2-0.1 0.1-0.4 0.1-0.2 0-0.4-0.1-0.1-0.1-0.3-0.2-0.1-0.2-0.2-0.3-0.1-0.2-0.1-0.5 0-0.2 0.1-0.4 0.1-0.1 0.2-0.3 0.2-0.1 0.3-0.2 0.2-0.1 0.4-0.1 0.3 0 0.4 0.1z"/>
		</g>
	</g>
</svg>