<svg version="1.2" xmlns="http://www.w3.org/2000/svg" viewBox="0 0 67 67" width="67" height="67">
	<title>report-svg</title>
	<defs>
		<linearGradient id="g1" x1="-4.2" y1="64.8" x2="62" y2="3.6" gradientUnits="userSpaceOnUse">
			<stop offset="0" stop-color="#f6aa78"/>
			<stop offset="1" stop-color="#f57389"/>
		</linearGradient>
	</defs>
	<style>
		.s0 { fill: #ffffff } 
		.s1 { fill: url(#g1) } 
	</style>
	<g id="Layer">
		<path id="Layer" fill-rule="evenodd" class="s0" d="m37.8 20.9c6 0 10.9 4.9 10.9 11 0 6-4.9 10.9-10.9 10.9-6.1 0-11-4.9-11-10.9 0-6.1 4.9-11 11-11z"/>
		<path id="Layer copy" fill-rule="evenodd" class="s1" d="m50.7 31.9c0 3.1-1.1 6.1-3 8.3q0.3 0.2 0.6 0.5c0.4 0.4 0.5 1 0.3 1.6l9.7 11.6c0.5 0.6 0.4 1.5-0.2 2l-0.3 0.3c-0.6 0.5-1.5 0.4-2-0.2l-9.7-11.7c-0.6 0.1-1.1-0.1-1.5-0.5q-0.3-0.3-0.4-0.7c-1.9 1.1-4.1 1.7-6.4 1.7-7.2 0-13-5.8-13-12.9 0-7.2 5.8-13 13-13 7.1 0 12.9 5.8 12.9 13zm-23.9 0c0 6 4.9 10.9 11 10.9 6 0 10.9-4.9 10.9-10.9 0-6.1-4.9-11-10.9-11-6.1 0-11 4.9-11 11zm12.2-9.1c3.5 0.5 6.6 3 7.6 6.7q0.1 0.3-0.1 0.6-0.1 0.3-0.4 0.3-0.3 0.1-0.6 0-0.3-0.2-0.4-0.5c-1-4.1-5.2-6.5-9.3-5.4q-0.3 0.1-0.6-0.1-0.3-0.2-0.3-0.5-0.1-0.3 0-0.5 0.2-0.3 0.5-0.4 1.1-0.3 2.3-0.3 0.7 0 1.3 0.1z"/>
	</g>
</svg>