<svg version="1.2" xmlns="http://www.w3.org/2000/svg" viewBox="0 0 67 67" width="67" height="67">
	<title>report_back-svg</title>
	<style>
		.s0 { fill: #ffffff } 
		.s1 { opacity: .5;fill: #678ee6 } 
		.s2 { fill: #78e5f6 } 
		.s3 { opacity: .8;fill: none;stroke: #678ee6;stroke-linecap: round;stroke-width: .9 } 
		.s4 { opacity: .9;fill: #f57389 } 
		.s5 { fill: #f6aa78 } 
		.s6 { opacity: .5;fill: none;stroke: #005ed9;stroke-linecap: round;stroke-width: .9 } 
		.s7 { fill: #3d8fcc } 
		.s8 { fill: #f57389 } 
	</style>
	<path id="Layer copy 2" fill-rule="evenodd" class="s0" d="m23.6 10c-1.1 0.5-1.6 1.7-1.2 2.7l0.8 1.9c0.4 1.1 1.6 1.6 2.7 1.2 1.1-0.5 1.6-1.7 1.1-2.7l-0.7-1.9c-0.4-0.8-1.1-1.3-1.9-1.3q-0.4 0-0.8 0.1z"/>
	<path id="Layer copy 3" fill-rule="evenodd" class="s0" d="m18 48.3l-1.3 2.4c-0.8 1.5-0.2 3.3 1.2 4.1 1.5 0.7 3.3 0.2 4-1.3l1.3-2.4c0.8-1.5 0.2-3.2-1.2-4q-0.7-0.4-1.5-0.4c-1 0.1-2 0.6-2.5 1.6z"/>
	<path id="Layer copy" fill-rule="evenodd" class="s0" d="m11.2 29.4v3.1c0 2 1.6 3.6 3.6 3.6 1.9 0 3.5-1.6 3.5-3.6v-3.1c0-2-1.6-3.6-3.5-3.6-2 0-3.6 1.6-3.6 3.6z"/>
	<g id="Layer">
		<path id="Layer" class="s1" d="m54 37.7l2.3-2.4 2.4 2.4-2.4 2.3z"/>
		<path id="Layer" class="s2" d="m37.1 12l2.8-2.7 2.7 2.7-2.7 2.7z"/>
		<path id="Layer" class="s3" d="m7.7 42.1l1.6-1.5 1.5 1.5-1.5 1.6z"/>
		<path id="Layer" class="s4" d="m36.9 58.9l2.4-2.4 2.4 2.4-2.4 2.4z"/>
		<path id="Layer" class="s1" d="m35.2 51.1l1.6-1.6 1.5 1.6-1.5 1.5z"/>
		<path id="Layer" class="s5" d="m31 5.5l1.3-1.3 1.3 1.3-1.3 1.4z"/>
		<path id="Layer" class="s6" d="m49.7 10.5l1.6-1.6 1.5 1.6-1.5 1.6z"/>
		<path id="Layer" fill-rule="evenodd" class="s7" d="m7.9 24q0 0 0.1 0 0 0 0.1 0 0 0.1 0.1 0.1l2.8 2.8c0.8-1.2 2.2-2.1 3.8-2.1 1.6 0 3 0.9 3.8 2.2l2.9-2.9q0.1 0 0.1-0.1 0 0 0.1 0 0 0 0.1 0 0 0 0.1 0 0.1-0.1 0.3 0 0.1 0.1 0.1 0.3 0.1 0.1 0.1 0.3-0.1 0.1-0.2 0.2l-3.1 3.1q0.2 0.7 0.2 1.5v0.9h4.2q0.2 0 0.4 0.2 0.1 0.1 0.1 0.3 0 0.2-0.1 0.4-0.2 0.1-0.4 0.1h-4.2v1.2q0 0.7-0.2 1.4l3.1 3.1q0.2 0.2 0.2 0.4 0 0.2-0.2 0.3-0.1 0.2-0.3 0.2-0.2 0-0.4-0.2l-2.8-2.8c-0.8 1.3-2.3 2.2-3.9 2.2-1.6 0-3.1-0.9-3.9-2.2l-2.7 2.8q-0.2 0.2-0.4 0.2-0.2 0-0.4-0.2-0.1-0.1-0.1-0.3 0-0.2 0.1-0.4l3.1-3q-0.2-0.7-0.3-1.5v-1.2h-4q-0.2 0-0.4-0.1-0.1-0.2-0.1-0.4 0-0.2 0.1-0.3 0.2-0.2 0.4-0.2h4v-0.9q0.1-0.8 0.3-1.5l-3.1-3.1q-0.1-0.1-0.1-0.2 0-0.2 0-0.3 0.1-0.2 0.2-0.3 0.1 0 0.3 0 0 0 0.1 0zm3.3 5.4v3.1c0 2 1.6 3.6 3.6 3.6 1.9 0 3.5-1.6 3.5-3.6v-3.1c0-2-1.6-3.6-3.5-3.6-2 0-3.6 1.6-3.6 3.6zm5.3-0.7c0 0.9-0.8 1.7-1.7 1.7-1 0-1.8-0.8-1.8-1.7 0-1 0.8-1.8 1.8-1.8 0.9 0 1.7 0.8 1.7 1.8zm-2.5 0c0 0.4 0.4 0.7 0.8 0.7 0.4 0 0.7-0.3 0.7-0.7 0-0.4-0.3-0.8-0.7-0.8-0.4 0-0.8 0.4-0.8 0.8z"/>
		<path id="Layer" fill-rule="evenodd" class="s8" d="m27.6 6.9q0.1 0.1 0.2 0.2 0.1 0.1 0.1 0.2 0 0.1-0.1 0.3l-1 2.5q0.2 0.3 0.4 0.7l0.2 0.4 2.3-0.9q0 0 0-0.1 0 0 0.1 0 0 0 0.1 0 0.1 0 0.3 0.1 0.1 0.1 0.2 0.3 0 0.2-0.1 0.4-0.1 0.1-0.3 0.2l-2.3 0.9 0.3 0.6q0.1 0.4 0.2 0.8l2.5 1q0.2 0.1 0.2 0.3 0.1 0.2 0 0.4 0 0.2-0.2 0.3-0.2 0.1-0.4 0l-2.2-1c-0.2 1-0.9 1.8-1.8 2.2-1 0.4-2 0.2-2.8-0.2l-0.9 2.1q-0.1 0.2-0.3 0.3-0.2 0-0.4 0-0.2-0.1-0.2-0.3-0.1-0.2 0-0.4l1-2.4q-0.3-0.4-0.4-0.8l-0.3-0.6-2.2 1q-0.2 0-0.4 0-0.2-0.1-0.3-0.3-0.1-0.2 0-0.4 0.1-0.2 0.3-0.3l2.3-0.9-0.2-0.4q-0.2-0.4-0.2-0.9l-2.5-1q-0.1-0.1-0.2-0.2-0.1-0.2-0.1-0.4 0.1-0.1 0.2-0.2 0.2-0.2 0.3-0.2 0.1 0 0.1 0 0 0 0 0.1 0.1 0 0.1 0l2.2 0.9c0.2-0.9 0.9-1.7 1.8-2.1 0.9-0.4 2-0.2 2.8 0.3l0.9-2.2q0-0.1 0.1-0.2 0 0 0.1-0.1 0 0 0.1 0 0.1 0 0.2 0 0.1 0 0.2 0zm-4 3.1c-1.1 0.5-1.6 1.7-1.2 2.7l0.8 1.9c0.4 1.1 1.6 1.6 2.7 1.2 1.1-0.5 1.6-1.7 1.1-2.7l-0.7-1.9c-0.4-0.8-1.1-1.3-1.9-1.3q-0.4 0-0.8 0.1zm1.8 1.1c0.2 0.6-0.1 1.4-0.7 1.7-0.7 0.2-1.4-0.1-1.7-0.7-0.3-0.7 0-1.5 0.7-1.7q0.2-0.1 0.5-0.1c0.5 0 1 0.3 1.2 0.8zm-1.3 0.2c-0.2 0.1-0.3 0.2-0.2 0.4 0.1 0.1 0.2 0.2 0.4 0.1 0.1 0 0.2-0.2 0.2-0.3q-0.1-0.2-0.3-0.2-0.1 0-0.1 0z"/>
		<path id="Layer" fill-rule="evenodd" class="s5" d="m17.4 42.7q0.1 0 0.1 0.1 0.1 0 0.1 0.1 0.1 0.1 0.1 0.2l1 3.1c1.1-0.6 2.5-0.6 3.7 0 1.3 0.7 2 1.9 2.1 3.2l3.3-1q0-0.1 0-0.1 0.1 0 0.1 0 0.2 0 0.3 0.1 0.2 0.2 0.2 0.3 0.1 0.2 0 0.4-0.1 0.1-0.3 0.2l-3.6 1.1q-0.1 0.6-0.4 1.2l-0.4 0.6 3.2 1.7q0.2 0.1 0.2 0.3 0.1 0.2 0 0.4-0.1 0.1-0.3 0.2-0.2 0.1-0.4 0l-3.1-1.7-0.5 0.9q-0.3 0.5-0.7 0.9l1.2 3.6q0 0.2-0.1 0.4-0.1 0.2-0.3 0.2-0.2 0.1-0.4 0-0.1-0.1-0.2-0.3l-1-3.2c-1.1 0.6-2.6 0.7-3.8 0-1.3-0.6-2-1.8-2.1-3.1l-3.2 1q-0.2 0.1-0.4 0-0.1-0.1-0.2-0.3-0.1-0.2 0-0.4 0.1-0.2 0.3-0.3l3.5-1q0.1-0.6 0.4-1.2l0.5-0.9-3.1-1.6q-0.1-0.1-0.2-0.2-0.1-0.2 0-0.3 0-0.2 0.1-0.3 0.2-0.1 0.3-0.1 0.1 0 0.1 0 0 0 0.1 0 0 0 0.1 0l3 1.6 0.4-0.6q0.3-0.6 0.7-1l-1.1-3.5q0-0.2 0-0.3 0-0.1 0.1-0.2 0.1-0.1 0.2-0.1 0.1-0.1 0.2-0.1 0.1 0 0.2 0zm0.6 5.6l-1.3 2.4c-0.8 1.5-0.2 3.3 1.2 4.1 1.5 0.7 3.3 0.2 4-1.3l1.3-2.4c0.8-1.5 0.2-3.2-1.2-4q-0.7-0.4-1.5-0.4c-1 0.1-2 0.6-2.5 1.6zm3.6-0.5c0.7 0.4 1 1.4 0.6 2.1-0.4 0.8-1.3 1.1-2.1 0.7-0.7-0.4-1-1.4-0.6-2.1 0.2-0.5 0.8-0.8 1.3-0.9q0.4 0 0.8 0.2zm-1.3 1.1c-0.1 0.3 0 0.7 0.3 0.8 0.3 0.2 0.6 0 0.7-0.2 0.2-0.3 0.1-0.6-0.2-0.8q-0.1-0.1-0.2-0.1-0.3 0-0.6 0.3z"/>
	</g>
</svg>